PathFileType	4	(X/Y/Z)	./resultDataOpenSim/trcMotMarkerGrf/sub10/qtm-03-01.trc
DataRate	CameraRate	NumFrames	NumMarkers	Units	OrigDataRate	OrigDataStartFrame	OrigNumFrames
250.000000	250.000000	12	24	m	250.000000	242	482
Frame#	Time	L.Toe.Tip			R.Toe.Tip			L.Ankle.Lat			R.Ankle.Lat			L.Ankle.Med			R.Ankle.Med			L.Heel			R.Heel			L.Knee.Lat			R.Knee.Lat			L.Knee.Med			R.Knee.Med			L.Thigh.Upper			R.Thigh.Upper			L.ASIS			R.ASIS			V.Sacral			L.Acromium			R.Acromium			C7			L.Elbow			R.Elbow			L.Wrist.Lat			R.Wrist.Lat
		X1	Y1	Z1	X2	Y2	Z2	X3	Y3	Z3	X4	Y4	Z4	X5	Y5	Z5	X6	Y6	Z6	X7	Y7	Z7	X8	Y8	Z8	X9	Y9	Z9	X10	Y10	Z10	X11	Y11	Z11	X12	Y12	Z12	X13	Y13	Z13	X14	Y14	Z14	X15	Y15	Z15	X16	Y16	Z16	X17	Y17	Z17	X18	Y18	Z18	X19	Y19	Z19	X20	Y20	Z20	X21	Y21	Z21	X22	Y22	Z22	X23	Y23	Z23	X24	Y24	Z24

242	0.964	-0.018493448	-0.0084012502	-0.14680039	0.30263199	0.060793693	0.0082593751	-0.15050051	0.028377634	-0.18255029	0.16387798	0.092049332	-0.00082727184	-0.14732597	0.053767319	-0.10109405	0.21281824	0.11737984	-0.071815551	-0.21905982	0.0060870169	-0.13853604	0.13062449	0.070090765	-0.063496299	-0.054870565	0.40481733	-0.22295637	0.24671817	0.47835237	0.051221936	-0.05784872	0.38532287	-0.10007169	0.2906183	0.49936639	-0.069114295	0.028566341	0.79223034	-0.2905664	0.037592279	0.82884936	0.090512046	0.092583505	0.90069213	-0.23035392	0.099774584	0.92282509	0.011882406	-0.11642278	0.92554708	-0.0913225	0.045662008	1.3784901	-0.27339089	0.01268996	1.3801939	0.047313916	-0.051078126	1.4071899	-0.12834032	-0.0013847504	1.0314838	-0.3374456	-0.12921422	1.0672848	0.083696408	0.19998535	0.88846086	-0.35873612	-0.066657207	0.84391286	0.16415896
243	0.968	-0.018519455	-0.0084458066	-0.14675747	0.32332788	0.061860201	0.0087954159	-0.15060581	0.028659461	-0.18219415	0.18353569	0.087791396	-0.0013499973	-0.14712376	0.054015212	-0.10083171	0.23191822	0.11479257	-0.071949899	-0.21903996	0.0065941378	-0.13818096	0.15143267	0.064588329	-0.063928483	-0.053623188	0.40471103	-0.22281809	0.25346854	0.47820235	0.050204666	-0.056600199	0.38498601	-0.099539642	0.29590207	0.49917437	-0.070072746	0.032229004	0.7915058	-0.29085123	0.044511864	0.82909934	0.090605045	0.097105484	0.89997996	-0.23093184	0.10571806	0.92275304	0.011431685	-0.11220523	0.92504385	-0.088477941	0.051047756	1.3779851	-0.27365062	0.018664696	1.3793195	0.047152404	-0.045400829	1.4066127	-0.1284472	0.0064262861	1.0304263	-0.33842224	-0.12509282	1.0674468	0.083400956	0.21035903	0.8905464	-0.35757174	-0.065001298	0.84369751	0.16483069
244	0.972	-0.018525258	-0.0085640388	-0.14661938	0.34385468	0.063200631	0.0092771705	-0.15051605	0.028897478	-0.18194006	0.20318835	0.083801453	-0.0019551066	-0.14691482	0.05425384	-0.10056418	0.25098602	0.11248206	-0.072103996	-0.2190021	0.0071125389	-0.13778813	0.1722999	0.059376303	-0.064248131	-0.05218226	0.40454376	-0.2226444	0.25996561	0.4777585	0.049162483	-0.055059033	0.38475645	-0.09929343	0.30103973	0.49871772	-0.071018087	0.035867553	0.79068597	-0.2911779	0.051574676	0.82931587	0.090777837	0.10162124	0.89923028	-0.23144779	0.11173218	0.92263041	0.011006301	-0.10781576	0.92434283	-0.085671713	0.056442075	1.3774288	-0.27390531	0.024627312	1.3783789	0.046989862	-0.039730204	1.4060297	-0.12851562	0.014250533	1.029338	-0.33920047	-0.12103353	1.0675363	0.083079085	0.22067453	0.89263756	-0.35638531	-0.063237643	0.84345049	0.16551384
245	0.976	-0.018477071	-0.0087415977	-0.14643469	0.36418943	0.064812895	0.0096741607	-0.15022399	0.029097418	-0.1818296	0.22287418	0.080084361	-0.0025397784	-0.14668901	0.054484795	-0.10028188	0.26997583	0.11047034	-0.07226297	-0.21895907	0.0076525434	-0.13738875	0.19315313	0.054488907	-0.064423855	-0.050539364	0.40431377	-0.22243895	0.26622379	0.47703002	0.048148193	-0.053212965	0.38465624	-0.099370424	0.30605019	0.49799555	-0.071945484	0.039533145	0.78979187	-0.29148964	0.058827678	0.82951329	0.091060695	0.10601721	0.89838761	-0.23196046	0.11780717	0.92247727	0.010572034	-0.1028832	0.92347503	-0.083457136	0.061850709	1.3768179	-0.2741392	0.030572123	1.3773768	0.046833828	-0.034101552	1.4054321	-0.12847259	0.022026566	1.0282221	-0.33955906	-0.11693686	1.0675356	0.082716648	0.23093305	0.89473242	-0.35517483	-0.061348759	0.84317454	0.1662203
246	0.98	-0.01835259	-0.0088955707	-0.14634833	0.38431011	0.066694044	0.0099609755	-0.14984056	0.029305634	-0.18178629	0.24257903	0.076685232	-0.0030077246	-0.14643201	0.054708814	-0.099977213	0.28883757	0.10874933	-0.07242667	-0.21891439	0.008216893	-0.13699877	0.21393071	0.050004787	-0.064510793	-0.048693002	0.40402418	-0.22220558	0.27225893	0.47603138	0.047214244	-0.05112353	0.38457789	-0.09958075	0.31095092	0.49700689	-0.072847784	0.043324268	0.78887178	-0.29168493	0.066205138	0.82967734	0.091413479	0.11030081	0.89744561	-0.23247203	0.12392199	0.92230492	0.010120283	-0.097270117	0.9224697	-0.082024982	0.067279247	1.3761491	-0.27435272	0.036502318	1.3763168	0.046695905	-0.02847132	1.4047958	-0.1284021	0.029810013	1.0270739	-0.33954771	-0.11278464	1.0674458	0.082372889	0.24113648	0.89682801	-0.35393952	-0.059407375	0.84286816	0.1669233
247	0.984	-0.01818295	-0.0089531954	-0.14644996	0.40419608	0.068827654	0.01011638	-0.14950428	0.029566524	-0.18168379	0.26222486	0.073664462	-0.0033340711	-0.14614557	0.054926062	-0.099665225	0.30751375	0.10729948	-0.072603247	-0.21886336	0.0088066682	-0.13661544	0.23458297	0.046003757	-0.06461195	-0.046648922	0.40368301	-0.2219475	0.27809584	0.47477083	0.046386522	-0.048867803	0.38437219	-0.099661939	0.31574784	0.49575045	-0.073722533	0.047259109	0.78796312	-0.29174061	0.073571397	0.82976604	0.091746196	0.11452385	0.89643223	-0.23296873	0.13005721	0.92208978	0.0096836658	-0.091319257	0.92142254	-0.081026875	0.072731542	1.3754229	-0.27455777	0.042425501	1.3752045	0.046581039	-0.022773893	1.4040825	-0.12843503	0.037703	1.025892	-0.3393506	-0.1086072	1.0672844	0.082091274	0.25127697	0.89891978	-0.35268298	-0.057532038	0.84252467	0.16757715
248	0.988	-0.018035981	-0.0089329342	-0.14665863	0.42383036	0.071159797	0.010116179	-0.14926314	0.029872904	-0.18146474	0.28168862	0.071086008	-0.0035419644	-0.14583699	0.055141437	-0.099363066	0.3259366	0.10612228	-0.072793053	-0.21879707	0.0094283853	-0.13622746	0.25504929	0.042510519	-0.064769678	-0.044419363	0.40329789	-0.22167005	0.28376203	0.47324669	0.045657806	-0.04651101	0.38395746	-0.099463195	0.32044661	0.49422835	-0.074567906	0.051224068	0.78705973	-0.29175638	0.08080321	0.82973542	0.091972938	0.11872779	0.89538023	-0.23344779	0.13620445	0.9217895	0.0092967667	-0.085473211	0.92044358	-0.080039892	0.078204255	1.3746421	-0.27476517	0.048344426	1.3740451	0.04648543	-0.017007894	1.4032515	-0.1285841	0.045698437	1.0246753	-0.33911042	-0.10443065	1.0670707	0.081864744	0.26133932	0.90100261	-0.35141141	-0.055756938	0.84214492	0.168165
249	0.992	-0.017957384	-0.0089032202	-0.14682849	0.44319316	0.073600556	0.0099238899	-0.14908241	0.030194087	-0.18116701	0.30084168	0.069001617	-0.0036617252	-0.145493	0.055369326	-0.099054774	0.34403374	0.10524318	-0.072992005	-0.218709	0.010089861	-0.13582817	0.27524315	0.039508377	-0.064930852	-0.04202259	0.40287742	-0.22138707	0.28928272	0.47146397	0.045000863	-0.044066505	0.3833484	-0.099017262	0.32507181	0.49244884	-0.075378048	0.055109861	0.786138	-0.29183832	0.087814059	0.82955898	0.092035839	0.12294084	0.894312	-0.2339114	0.14236572	0.92138625	0.0089497199	-0.079929472	0.91954016	-0.078935518	0.083691872	1.3738122	-0.27497315	0.054260075	1.3728411	0.046403807	-0.011242868	1.402304	-0.12872409	0.053708858	1.0234222	-0.33889198	-0.10024094	1.0668047	0.081659126	0.27131416	0.90307725	-0.35012719	-0.053954613	0.84174731	0.1687149
250	0.996	-0.017944701	-0.0089025506	-0.14689703	0.46224524	0.076079548	0.0094867878	-0.14891776	0.03052452	-0.18085592	0.31962688	0.067404963	-0.0037345115	-0.14509755	0.055624429	-0.098715172	0.36174559	0.10469184	-0.073204673	-0.21859859	0.010797362	-0.13541653	0.29506813	0.036982874	-0.065012158	-0.039482551	0.40243599	-0.22111961	0.29468452	0.46945931	0.044392589	-0.041461536	0.38262295	-0.098492729	0.32965905	0.49042097	-0.076152829	0.058923125	0.78519491	-0.29201411	0.094596205	0.82923185	0.091932609	0.12716922	0.89323103	-0.23436126	0.14854956	0.92089281	0.0086040131	-0.074443384	0.91850594	-0.078079629	0.089197809	1.3729402	-0.27516951	0.060173108	1.3715959	0.046332721	-0.005545814	1.401289	-0.12871896	0.061683741	1.0221412	-0.33869523	-0.095980342	1.0664569	0.081437681	0.2812078	0.90515195	-0.3488225	-0.05194039	0.84135317	0.16926905
251	1	-0.017971465	-0.0089282939	-0.14688856	0.48092451	0.078611686	0.0087518808	-0.1487428	0.030877881	-0.1805656	0.33811606	0.066194125	-0.0038040979	-0.14465533	0.055910525	-0.098348215	0.37903328	0.10448149	-0.073442711	-0.21846903	0.011558498	-0.13499426	0.3144389	0.034929257	-0.064973023	-0.03682421	0.40198667	-0.22088215	0.30000434	0.46730014	0.04383664	-0.038562037	0.38191816	-0.098139223	0.33423277	0.48815338	-0.076906178	0.062737104	0.78424755	-0.29226819	0.10124144	0.82876475	0.09172094	0.13139103	0.89212432	-0.23479925	0.15476551	0.92032658	0.0082353221	-0.068186995	0.91690759	-0.078409958	0.094729546	1.3720302	-0.27534935	0.066080901	1.3703169	0.046272148	9.1370103e-05	1.4002592	-0.12856231	0.069638612	1.0208534	-0.33848516	-0.091589729	1.0659959	0.081194248	0.29103888	0.90723545	-0.34747797	-0.049655337	0.840965	0.1698451
252	1.004	-0.018014312	-0.0089645721	-0.14684932	0.49917161	0.081265748	0.0076929001	-0.1485445	0.031264658	-0.18029332	0.35642149	0.065231866	-0.0038743085	-0.14418026	0.056219468	-0.097985287	0.39587005	0.10459637	-0.073719012	-0.21832418	0.012377701	-0.13457033	0.33328973	0.033340454	-0.064839778	-0.034069419	0.40153412	-0.22067323	0.30529099	0.46504884	0.043355492	-0.035279677	0.38143427	-0.098211343	0.33879725	0.48566117	-0.077659215	0.066599363	0.7833149	-0.29257633	0.1078667	0.82817825	0.091471001	0.13557225	0.89097761	-0.23523362	0.16101936	0.91969692	0.0078430367	-0.060326023	0.91442539	-0.080735961	0.10028834	1.3710836	-0.27551753	0.071983002	1.3690113	0.046225822	0.0057334855	1.3992381	-0.12835997	0.077608922	1.0195847	-0.33823296	-0.087054254	1.0654269	0.080973182	0.30081931	0.90932956	-0.34607921	-0.047189767	0.84056849	0.17042751
253	1.008	-0.018061189	-0.0090008834	-0.14680981	0.51695014	0.084066763	0.0063204932	-0.1483185	0.031692949	-0.18002481	0.37453293	0.064473391	-0.0039102016	-0.14368166	0.056542672	-0.097664497	0.41223417	0.10500238	-0.074045554	-0.21816767	0.013252267	-0.13416081	0.35157524	0.032197534	-0.064666388	-0.031241039	0.4010845	-0.22048529	0.31059147	0.46273316	0.042958391	-0.031696872	0.38130076	-0.098749221	0.34333837	0.48296793	-0.078429936	0.0704754	0.78240086	-0.29287471	0.11453973	0.8274969	0.091226852	0.13968997	0.88979158	-0.23568185	0.16731613	0.91900783	0.007431777	-0.051499506	0.91145735	-0.084317829	0.10587003	1.3701025	-0.27567565	0.077879972	1.3676859	0.046196501	0.01142776	1.3982217	-0.1282021	0.085604382	1.0183484	-0.33794358	-0.082399397	1.0647847	0.080836088	0.31053882	0.91142741	-0.34463693	-0.044652679	0.84014965	0.1709892
